<svg width="14" height="8" viewBox="0 0 14 8" fill="none" xmlns="http://www.w3.org/2000/svg">
<path d="M13.0015 1.88758C13.2017 1.6874 13.2056 1.36684 13.0104 1.17157L12.3033 0.464468C12.108 0.269206 11.7874 0.273188 11.5873 0.473362L6.99997 5.06066L2.41297 0.473667C2.21258 0.273277 1.89184 0.26912 1.69658 0.464382L0.989473 1.17149C0.794211 1.36675 0.798368 1.68749 0.998757 1.88788L6.64641 7.53554C6.74675 7.63587 6.88016 7.6836 7.01333 7.67913C7.13748 7.6768 7.25986 7.62902 7.35343 7.53545L7.35425 7.53463C7.35699 7.532 7.35972 7.52934 7.36241 7.52664L13.0015 1.88758Z" fill="#2D2D2D"/>
</svg>
